<svg xmlns="http://www.w3.org/2000/svg" height="40" viewBox="0 96 960 960" width="40"><path d="M227.382 934.59q-23.405 0-40.137-16.733-16.733-16.732-16.733-40.318V315.871q0-23.586 16.733-40.318 16.732-16.733 40.137-16.733H486.59v32.436H227.564q-9.231 0-16.923 7.692-7.693 7.693-7.693 16.923v561.668q0 9.23 7.693 16.923 7.692 7.692 16.923 7.692H486.59v32.436H227.382ZM658.59 727.397l-23.628-22.269 92.205-92.205H374.949v-32.436h351.91l-92.205-92.205 23.116-23.5 131.718 131.974L658.59 727.397Z"/></svg>